<svg width="22" height="19" viewBox="0 0 22 19" fill="none" xmlns="http://www.w3.org/2000/svg">
<path d="M12.9817 5.96881C12.9304 5.75255 12.91 5.52887 12.9239 5.30731C12.9442 4.97868 12.9325 4.64793 12.9325 4.31718V1.16338C12.9325 0.844291 12.8684 0.474316 13.0832 0.205051C13.189 0.0725384 13.359 -0.01651 13.5279 0.00257181C13.6572 0.0163531 13.7716 0.0884399 13.8753 0.164767C14.3082 0.481737 14.4493 1.02451 14.6514 1.49837C14.7914 1.82594 14.9304 2.15351 15.0704 2.48108H17.4221C17.4221 2.48108 18.3842 2.48108 18.7048 3.96522H20.3083C20.3083 3.96522 21.8048 3.85921 20.629 6.08542C19.8732 7.51656 17.9363 8.23849 16.413 8.19396C15.5311 8.16746 14.6428 8.0042 13.9459 7.43281C13.529 7.09146 13.1858 6.63667 13.0234 6.11723C13.0084 6.06846 12.9945 6.01864 12.9827 5.96881H12.9817Z" fill="#020202"/>
<path d="M11.6497 8.31173C11.6497 8.31173 11.8635 7.78168 12.5049 7.88769L16.9945 9.15981C16.9945 9.15981 17.6359 9.26582 17.9566 10.75L19.1324 17.3226C19.2286 17.86 18.723 18.3657 18.1917 18.1367C17.9608 18.0371 17.7887 17.8314 17.684 17.6046C17.4584 17.118 17.3772 16.5095 17.2361 15.9911C17.079 15.4123 16.9218 14.8345 16.7647 14.2557C16.6385 13.7893 16.5145 13.3228 16.382 12.8585C16.2569 12.4217 16.2013 11.9352 15.9576 11.5429C15.8539 11.3754 15.6776 11.2164 15.4819 11.2493C15.2478 11.2885 15.0864 11.5747 15.0148 11.7751C14.9325 12.0051 14.9261 12.2574 14.8395 12.4853C14.7048 12.8384 14.4044 12.9232 14.057 12.9232C14.057 12.9232 13.4156 13.0292 13.3088 12.3942C13.2457 12.0231 13.157 11.58 12.9303 11.2715C12.847 11.157 12.7294 11.0531 12.5872 11.0415C12.4343 11.0298 12.2943 11.1274 12.1885 11.2376C11.6177 11.8313 11.5642 12.9825 11.3857 13.7447C11.3365 13.9546 11.2863 14.1688 11.1676 14.349C10.5209 15.3338 8.90787 14.8091 7.96398 15.1494C6.69513 15.6073 5.18256 16.625 4.66839 17.9025C4.63526 17.9851 4.60639 18.071 4.55081 18.141C4.45246 18.265 4.28464 18.3169 4.12536 18.3138C2.9741 18.2883 3.18255 17.0713 3.47544 16.3155C3.47544 16.3155 4.00992 14.9374 5.39956 13.4532C5.26594 13.5963 4.32954 13.3843 4.16705 13.3589C3.3012 13.2189 2.44176 12.9348 1.71915 12.4334C-0.377072 10.9789 -0.607966 7.86649 1.31188 6.17245C2.14139 5.44098 3.25524 5.25228 4.3306 5.39646C4.3306 5.39646 5.55776 5.69434 5.42521 6.49896C5.3258 7.10428 4.70688 7.17848 4.19271 7.29191C4.1275 7.30676 4.06337 7.32054 4.0003 7.34174C2.91852 7.70853 2.59997 9.35593 3.04786 10.2719C3.04786 10.2719 4.75819 13.7702 9.78227 10.4839C9.78227 10.4839 11.3857 9.21176 11.6529 8.31067L11.6497 8.31173Z" fill="#020202"/>
<path d="M13.36 13.9619C13.3716 13.8453 13.2381 13.7369 13.0618 13.7196C12.8856 13.7024 12.7333 13.7828 12.7217 13.8994C12.7101 14.0159 12.8436 14.1243 13.0198 14.1416C13.1961 14.1589 13.3484 14.0784 13.36 13.9619Z" fill="#020202"/>
<path d="M14.059 14.8835C14.1913 14.8835 14.2985 14.8123 14.2985 14.7244C14.2985 14.6366 14.1913 14.5654 14.059 14.5654C13.9268 14.5654 13.8196 14.6366 13.8196 14.7244C13.8196 14.8123 13.9268 14.8835 14.059 14.8835Z" fill="#020202"/>
<path d="M15.0149 14.1365C15.1907 14.1158 15.322 14.0048 15.3081 13.8885C15.2942 13.7722 15.1403 13.6947 14.9644 13.7154C14.7886 13.7361 14.6573 13.8472 14.6712 13.9635C14.6851 14.0798 14.839 14.1572 15.0149 14.1365Z" fill="#020202"/>
</svg>
