<svg width="54" height="7" viewBox="0 0 54 7" fill="none" xmlns="http://www.w3.org/2000/svg">
<path d="M6.60293 2.01843H5.26888C4.90864 1.34209 4.2662 1.00391 3.457 1.00391C2.11332 1.00391 1.13951 1.95058 1.13951 3.42836C1.13951 4.90614 2.11332 5.86235 3.457 5.86235C4.68416 5.86235 5.45381 5.12876 5.61949 3.9987H3.07752V3.11987H6.8071V3.97961C6.60293 5.53478 5.2785 6.85778 3.457 6.85778C1.6355 6.85778 0 5.44679 0 3.42836C0 1.40993 1.54892 0 3.457 0C4.86909 0 6.08663 0.704967 6.60293 2.01843Z" fill="#020202"/>
<path d="M11.5105 0.975051H8.88091V2.94578H11.2187V3.84368H8.88091V5.90133H11.5105V6.79924H7.77026V0.0771484H11.5105V0.975051Z" fill="#020202"/>
<path d="M18.1455 0.0761719V6.79826H17.0349L13.6944 1.78505V6.79826H12.5837V0.0761719H13.6944L17.0349 5.07984V0.0761719H18.1455Z" fill="#020202"/>
<path d="M18.8756 0.0869141H23.5993V0.984818H21.797V6.79946H20.6864V0.984818H18.8745V0.0869141H18.8756Z" fill="#020202"/>
<path d="M25.438 0.0869141V5.9111H27.7267V6.79946H24.3274V0.0869141H25.438Z" fill="#020202"/>
<path d="M32.1072 0.975051H29.4776V2.94578H31.8154V3.84368H29.4776V5.90133H32.1072V6.79924H28.3669V0.0771484H32.1072V0.975051Z" fill="#020202"/>
<path d="M38.987 3.46757C38.987 5.53477 37.5653 6.79946 35.3932 6.79946H33.1826V0.0869141H35.3932C37.5653 0.0869141 38.987 1.39084 38.987 3.46757ZM35.3932 5.90156C36.9902 5.90156 37.8475 4.99411 37.8475 3.46757C37.8475 1.94103 36.9902 0.984818 35.3932 0.984818H34.2922V5.90156H35.3932Z" fill="#020202"/>
<path d="M43.0329 6.86732C41.1238 6.86732 39.5759 5.44785 39.5759 3.42836C39.5759 1.40887 41.1248 0 43.0329 0C44.941 0 46.4899 1.41947 46.4899 3.42836C46.4899 5.43725 44.9613 6.86732 43.0329 6.86732ZM43.0329 5.91112C44.3766 5.91112 45.3504 4.94537 45.3504 3.42836C45.3504 1.91136 44.3766 0.965751 43.0329 0.965751C41.6893 0.965751 40.7154 1.91242 40.7154 3.42836C40.7154 4.94431 41.6893 5.91112 43.0329 5.91112Z" fill="#020202"/>
<path d="M53.6529 2.01835H52.3188C51.9586 1.342 51.3162 1.00383 50.507 1.00383C49.1633 1.00383 48.1895 1.9505 48.1895 3.42828C48.1895 4.90606 49.1633 5.86227 50.507 5.86227C51.7341 5.86227 52.5038 5.12868 52.6695 3.99861H50.1275V3.11979H53.8581V3.97953C53.654 5.5347 52.3295 6.8577 50.508 6.8577C48.6865 6.8577 47.051 5.44777 47.051 3.42934C47.051 1.41091 48.5999 0.000976562 50.508 0.000976562C51.9201 0.000976562 53.1377 0.705942 53.654 2.01941L53.6529 2.01835Z" fill="#020202"/>
</svg>
