<svg width="20" height="14" viewBox="0 0 20 14" fill="none" xmlns="http://www.w3.org/2000/svg">
<path d="M11.6497 3.31173C11.6497 3.31173 11.8635 2.78168 12.5049 2.88769L16.9945 4.15981C16.9945 4.15981 17.6359 4.26582 17.9566 5.74996L19.1324 12.3226C19.2286 12.86 18.723 13.3657 18.1917 13.1367C17.9608 13.0371 17.7887 12.8314 17.684 12.6046C17.4584 12.118 17.3772 11.5095 17.2361 10.9911C17.079 10.4123 16.9218 9.83452 16.7647 9.25571C16.6385 8.78926 16.5145 8.32282 16.382 7.8585C16.2569 7.42174 16.2013 6.93515 15.9576 6.54291C15.8539 6.37542 15.6776 6.2164 15.4819 6.24927C15.2478 6.28849 15.0864 6.57472 15.0148 6.77508C14.9325 7.00512 14.9261 7.25742 14.8395 7.48534C14.7048 7.83836 14.4044 7.92316 14.057 7.92316C14.057 7.92316 13.4156 8.02917 13.3088 7.39417C13.2457 7.02314 13.157 6.58002 12.9303 6.27153C12.847 6.15704 12.7294 6.05315 12.5872 6.04149C12.4343 6.02983 12.2943 6.12736 12.1885 6.23761C11.6177 6.83126 11.5642 7.98253 11.3857 8.74474C11.3365 8.95464 11.2863 9.16878 11.1676 9.349C10.5209 10.3338 8.90787 9.80908 7.96398 10.1494C6.69513 10.6073 5.18256 11.625 4.66839 12.9025C4.63526 12.9851 4.60639 13.071 4.55081 13.141C4.45246 13.265 4.28464 13.3169 4.12536 13.3138C2.9741 13.2883 3.18255 12.0713 3.47544 11.3155C3.47544 11.3155 4.00992 9.93735 5.39956 8.45321C5.26594 8.59633 4.32954 8.38431 4.16705 8.35886C3.3012 8.21893 2.44176 7.93482 1.71915 7.4334C-0.377072 5.97894 -0.607966 2.86649 1.31188 1.17245C2.14139 0.440981 3.25524 0.252283 4.3306 0.396457C4.3306 0.396457 5.55776 0.694345 5.42521 1.49896C5.3258 2.10428 4.70688 2.17848 4.19271 2.29191C4.1275 2.30676 4.06337 2.32054 4.0003 2.34174C2.91852 2.70853 2.59997 4.35593 3.04786 5.27185C3.04786 5.27185 4.75819 8.77018 9.78227 5.48387C9.78227 5.48387 11.3857 4.21176 11.6529 3.31067L11.6497 3.31173Z" fill="#020202"/>
</svg>
