<svg width="10" height="9" viewBox="0 0 10 9" fill="none" xmlns="http://www.w3.org/2000/svg">
<path d="M0.981661 5.96881C0.930351 5.75255 0.910043 5.52887 0.923939 5.30731C0.944249 4.97868 0.93249 4.64793 0.93249 4.31718V1.16338C0.93249 0.844291 0.868353 0.474316 1.08321 0.205051C1.18904 0.0725384 1.359 -0.01651 1.5279 0.00257181C1.65724 0.0163531 1.77162 0.0884399 1.87531 0.164767C2.30823 0.481737 2.44934 1.02451 2.65137 1.49837C2.7914 1.82594 2.93037 2.15351 3.0704 2.48108H5.4221C5.4221 2.48108 6.38416 2.48108 6.70484 3.96522H8.30828C8.30828 3.96522 9.80481 3.85921 8.62896 6.08542C7.87321 7.51656 5.93627 8.23849 4.41301 8.19396C3.53112 8.16746 2.64282 8.0042 1.94586 7.43281C1.52897 7.09146 1.18583 6.63667 1.02335 6.11723C1.00839 6.06846 0.994489 6.01864 0.982731 5.96881H0.981661Z" fill="#020202"/>
</svg>
